<mxfile host="app.diagrams.net" agent="Mozilla/5.0 (Windows NT 10.0; Win64; x64) AppleWebKit/537.36 (KHTML, like Gecko) Chrome/138.0.0.0 Safari/537.36" version="28.0.6">
  <diagram name="Page-1" id="fc2ac565-0d4e-3f0d-88b0-a54af1634ed7">
    <mxGraphModel dx="1417" dy="751" grid="1" gridSize="10" guides="1" tooltips="1" connect="0" arrows="1" fold="1" page="1" pageScale="1.5" pageWidth="1169" pageHeight="827" background="none" math="0" shadow="0">
      <root>
        <mxCell id="0" style=";html=1;" />
        <mxCell id="1" style=";html=1;" parent="0" />
        <mxCell id="80" value="Tile(1,0) chanel 0" style="align=left;strokeColor=#CCCCCC;html=1;" parent="1" vertex="1">
          <mxGeometry x="510" y="170" width="107" height="20" as="geometry" />
        </mxCell>
        <mxCell id="2" value="Task Name" style="strokeWidth=1;fontStyle=0;html=1;" parent="1" vertex="1">
          <mxGeometry x="510" y="130" width="107" height="20" as="geometry" />
        </mxCell>
        <mxCell id="67c90442a009f359-291" value="" style="align=left;strokeColor=#CCCCCC;html=1;" parent="1" vertex="1">
          <mxGeometry x="617" y="150" width="840" height="20" as="geometry" />
        </mxCell>
        <mxCell id="4" value="T0" style="strokeWidth=1;fontStyle=0;html=1;" parent="1" vertex="1">
          <mxGeometry x="617" y="130" width="70" height="20" as="geometry" />
        </mxCell>
        <mxCell id="67c90442a009f359-278" value="T1" style="strokeWidth=1;fontStyle=0;html=1;" parent="1" vertex="1">
          <mxGeometry x="687" y="130" width="70" height="20" as="geometry" />
        </mxCell>
        <mxCell id="67c90442a009f359-279" value="&lt;span style=&quot;font-size: 16px;&quot;&gt;......&lt;/span&gt;" style="strokeWidth=1;fontStyle=0;html=1;" parent="1" vertex="1">
          <mxGeometry x="757" y="130" width="70" height="20" as="geometry" />
        </mxCell>
        <mxCell id="67c90442a009f359-280" value="T3" style="strokeWidth=1;fontStyle=0;html=1;" parent="1" vertex="1">
          <mxGeometry x="827" y="130" width="70" height="20" as="geometry" />
        </mxCell>
        <mxCell id="67c90442a009f359-281" value="T4" style="strokeWidth=1;fontStyle=0;html=1;" parent="1" vertex="1">
          <mxGeometry x="897" y="130" width="70" height="20" as="geometry" />
        </mxCell>
        <mxCell id="67c90442a009f359-282" value="&lt;font style=&quot;font-size: 16px;&quot;&gt;......&lt;/font&gt;" style="strokeWidth=1;fontStyle=0;html=1;" parent="1" vertex="1">
          <mxGeometry x="967" y="130" width="70" height="20" as="geometry" />
        </mxCell>
        <mxCell id="67c90442a009f359-283" value="July" style="strokeWidth=1;fontStyle=0;html=1;" parent="1" vertex="1">
          <mxGeometry x="1037" y="130" width="70" height="20" as="geometry" />
        </mxCell>
        <mxCell id="67c90442a009f359-284" value="Aug" style="strokeWidth=1;fontStyle=0;html=1;" parent="1" vertex="1">
          <mxGeometry x="1107" y="130" width="70" height="20" as="geometry" />
        </mxCell>
        <mxCell id="67c90442a009f359-285" value="Sept" style="strokeWidth=1;fontStyle=0;html=1;" parent="1" vertex="1">
          <mxGeometry x="1177" y="130" width="70" height="20" as="geometry" />
        </mxCell>
        <mxCell id="67c90442a009f359-286" value="Oct" style="strokeWidth=1;fontStyle=0;html=1;" parent="1" vertex="1">
          <mxGeometry x="1247" y="130" width="70" height="20" as="geometry" />
        </mxCell>
        <mxCell id="67c90442a009f359-287" value="Nov" style="strokeWidth=1;fontStyle=0;html=1;" parent="1" vertex="1">
          <mxGeometry x="1317" y="130" width="70" height="20" as="geometry" />
        </mxCell>
        <mxCell id="67c90442a009f359-288" value="Dec" style="strokeWidth=1;fontStyle=0;html=1;" parent="1" vertex="1">
          <mxGeometry x="1387" y="130" width="70" height="20" as="geometry" />
        </mxCell>
        <mxCell id="67c90442a009f359-292" value="" style="align=left;strokeColor=#CCCCCC;html=1;" parent="1" vertex="1">
          <mxGeometry x="617" y="170" width="840" height="20" as="geometry" />
        </mxCell>
        <mxCell id="67c90442a009f359-293" value="" style="align=left;strokeColor=#CCCCCC;html=1;" parent="1" vertex="1">
          <mxGeometry x="617" y="190" width="840" height="20" as="geometry" />
        </mxCell>
        <mxCell id="67c90442a009f359-294" value="" style="align=left;strokeColor=#CCCCCC;html=1;" parent="1" vertex="1">
          <mxGeometry x="617" y="210" width="840" height="20" as="geometry" />
        </mxCell>
        <mxCell id="67c90442a009f359-295" value="" style="align=left;strokeColor=#CCCCCC;html=1;" parent="1" vertex="1">
          <mxGeometry x="617" y="230" width="840" height="20" as="geometry" />
        </mxCell>
        <mxCell id="67c90442a009f359-296" value="" style="align=left;strokeColor=#CCCCCC;html=1;" parent="1" vertex="1">
          <mxGeometry x="617" y="250" width="840" height="20" as="geometry" />
        </mxCell>
        <mxCell id="67c90442a009f359-297" value="" style="align=left;strokeColor=#CCCCCC;html=1;" parent="1" vertex="1">
          <mxGeometry x="617" y="270" width="840" height="20" as="geometry" />
        </mxCell>
        <mxCell id="67c90442a009f359-298" value="" style="align=left;strokeColor=#CCCCCC;html=1;" parent="1" vertex="1">
          <mxGeometry x="617" y="290" width="840" height="20" as="geometry" />
        </mxCell>
        <mxCell id="67c90442a009f359-299" value="" style="whiteSpace=wrap;html=1;strokeWidth=2;fillColor=#CCCCCC;gradientColor=none;fontSize=14;align=center;strokeColor=#999999;" parent="1" vertex="1">
          <mxGeometry x="617" y="150" width="210" height="20" as="geometry" />
        </mxCell>
        <mxCell id="67c90442a009f359-300" value="" style="whiteSpace=wrap;html=1;strokeWidth=2;fillColor=#CCCCCC;gradientColor=none;fontSize=14;align=center;strokeColor=#999999;" parent="1" vertex="1">
          <mxGeometry x="687" y="170" width="140" height="20" as="geometry" />
        </mxCell>
        <mxCell id="67c90442a009f359-301" value="" style="whiteSpace=wrap;html=1;strokeWidth=2;fillColor=#CCCCCC;gradientColor=none;fontSize=14;align=center;strokeColor=#999999;" parent="1" vertex="1">
          <mxGeometry x="827" y="190" width="70" height="20" as="geometry" />
        </mxCell>
        <mxCell id="67c90442a009f359-302" value="" style="whiteSpace=wrap;html=1;strokeWidth=2;fillColor=#CCCCCC;gradientColor=none;fontSize=14;align=center;strokeColor=#999999;" parent="1" vertex="1">
          <mxGeometry x="897" y="210" width="210" height="20" as="geometry" />
        </mxCell>
        <mxCell id="67c90442a009f359-303" value="" style="whiteSpace=wrap;html=1;strokeWidth=2;fillColor=#CCCCCC;gradientColor=none;fontSize=14;align=center;strokeColor=#999999;" parent="1" vertex="1">
          <mxGeometry x="1107" y="230" width="140" height="20" as="geometry" />
        </mxCell>
        <mxCell id="67c90442a009f359-304" value="" style="whiteSpace=wrap;html=1;strokeWidth=2;fillColor=#CCCCCC;gradientColor=none;fontSize=14;align=center;strokeColor=#999999;" parent="1" vertex="1">
          <mxGeometry x="1107" y="250" width="210" height="20" as="geometry" />
        </mxCell>
        <mxCell id="67c90442a009f359-305" value="" style="whiteSpace=wrap;html=1;strokeWidth=2;fillColor=#CCCCCC;gradientColor=none;fontSize=14;align=center;strokeColor=#999999;" parent="1" vertex="1">
          <mxGeometry x="1247" y="270" width="140" height="20" as="geometry" />
        </mxCell>
        <mxCell id="67c90442a009f359-306" value="" style="whiteSpace=wrap;html=1;strokeWidth=2;fillColor=#CCCCCC;gradientColor=none;fontSize=14;align=center;strokeColor=#999999;" parent="1" vertex="1">
          <mxGeometry x="1387" y="290" width="70" height="20" as="geometry" />
        </mxCell>
        <mxCell id="dyx_yrJ9sRXWXp9Ju8vh-100" value="" style="group" vertex="1" connectable="0" parent="1">
          <mxGeometry x="510" y="150" width="107" height="160" as="geometry" />
        </mxCell>
        <mxCell id="75" value="Tile(0,0) chanel 0" style="align=left;strokeColor=#CCCCCC;html=1;" parent="dyx_yrJ9sRXWXp9Ju8vh-100" vertex="1">
          <mxGeometry x="1.3304912727107872e-13" width="106.99999999999986" height="19.999999999999915" as="geometry" />
        </mxCell>
        <mxCell id="85" value="Tile(2,0) chanel 0" style="align=left;strokeColor=#CCCCCC;html=1;" parent="dyx_yrJ9sRXWXp9Ju8vh-100" vertex="1">
          <mxGeometry y="40.000000000000256" width="107" height="19.9999999999999" as="geometry" />
        </mxCell>
        <mxCell id="90" value="Tile(3,0) chanel 0" style="align=left;strokeColor=#CCCCCC;html=1;" parent="dyx_yrJ9sRXWXp9Ju8vh-100" vertex="1">
          <mxGeometry y="60.000000000000384" width="107" height="19.9999999999999" as="geometry" />
        </mxCell>
        <mxCell id="95" value="Tile(0,1) chanel 0" style="align=left;strokeColor=#CCCCCC;html=1;" parent="dyx_yrJ9sRXWXp9Ju8vh-100" vertex="1">
          <mxGeometry x="2.4709123636057473e-13" y="80.00000000000051" width="106.99999999999974" height="19.9999999999999" as="geometry" />
        </mxCell>
        <mxCell id="100" value="&lt;div style=&quot;line-height: 20%;&quot;&gt;&lt;font style=&quot;font-size: 19px; line-height: 20%;&quot;&gt;.&lt;/font&gt;&lt;div&gt;&lt;font style=&quot;font-size: 19px; line-height: 20%;&quot;&gt;.&lt;/font&gt;&lt;/div&gt;&lt;div&gt;&lt;font style=&quot;font-size: 19px; line-height: 20%;&quot;&gt;.&lt;/font&gt;&lt;/div&gt;&lt;/div&gt;" style="align=center;strokeColor=#CCCCCC;html=1;" parent="dyx_yrJ9sRXWXp9Ju8vh-100" vertex="1">
          <mxGeometry y="100" width="107" height="40" as="geometry" />
        </mxCell>
        <mxCell id="67c90442a009f359-290" value="Tile(3,3) chanel 3" style="align=left;strokeColor=#CCCCCC;html=1;" parent="dyx_yrJ9sRXWXp9Ju8vh-100" vertex="1">
          <mxGeometry x="2.4709123636057473e-13" y="140.00000000000009" width="106.99999999999974" height="19.9999999999999" as="geometry" />
        </mxCell>
      </root>
    </mxGraphModel>
  </diagram>
</mxfile>
